<svg width="32" height="32" viewBox="0 0 32 32" xmlns="http://www.w3.org/2000/svg">
  <!-- メインのチーズケーキ（円形） -->
  <circle cx="16" cy="16" r="12" fill="#F5DEB3" stroke="#DEB887" stroke-width="0.3"/>
  
  <!-- チーズケーキの上部（キャラメル色の層） -->
  <path d="M 4 16 A 12 12 0 0 1 28 16 L 26 12 A 10 10 0 0 0 6 12 Z" fill="#D2691E" stroke="#8B4513" stroke-width="0.2"/>
  
  <!-- チーズケーキの本体（クリーム色） -->
  <circle cx="16" cy="16" r="10" fill="#FFF8DC" stroke="#DEB887" stroke-width="0.2"/>
  
  <!-- チーズケーキの底（クラスト） -->
  <ellipse cx="16" cy="26" rx="12" ry="2" fill="#DAA520" stroke="#B8860B" stroke-width="0.2"/>
  
  <!-- 切り分けられた一切れ（小さく） -->
  <g transform="translate(26, 8)">
    <!-- 一切れの本体 -->
    <path d="M 0 0 L 6 0 A 6 6 0 0 1 6 12 L 0 12 Z" fill="#FFF8DC" stroke="#DEB887" stroke-width="0.2"/>
    
    <!-- 一切れの上部（キャラメル色） -->
    <path d="M 0 0 L 6 0 A 6 6 0 0 1 5 2 L 0 2 Z" fill="#D2691E" stroke="#8B4513" stroke-width="0.1"/>
    
    <!-- 一切れの底（クラスト） -->
    <ellipse cx="3" cy="11" rx="6" ry="1" fill="#DAA520" stroke="#B8860B" stroke-width="0.1"/>
    
    <!-- 一切れの切り口の質感 -->
    <path d="M 0 2 L 0 10" stroke="#F0E68C" stroke-width="0.3" opacity="0.6"/>
  </g>
  
  <!-- メインケーキの表面の光沢 -->
  <ellipse cx="12" cy="10" rx="4" ry="2" fill="#F0E68C" opacity="0.3"/>
  
  <!-- メインケーキの切り口の質感 -->
  <path d="M 28 16 L 28 8" stroke="#F0E68C" stroke-width="0.3" opacity="0.6"/>
  
  <!-- 上部の光沢効果 -->
  <ellipse cx="16" cy="8" rx="8" ry="1.5" fill="#FFD700" opacity="0.2"/>
</svg>
