<svg width="32" height="32" viewBox="0 0 32 32" xmlns="http://www.w3.org/2000/svg">
  <!-- パンの本体（シンプルな楕円形） -->
  <ellipse cx="16" cy="16" rx="12" ry="4" fill="#D4A574" stroke="#B8860B" stroke-width="0.4"/>
  
  <!-- パンの上部（明るい部分） -->
  <ellipse cx="16" cy="14" rx="11" ry="3" fill="#F5E6D3" stroke="#D4A574" stroke-width="0.3"/>
  
  <!-- パンのスコア（シンプルな切り込み）2本 -->
  <path d="M 8 12 Q 10 10 12 12" stroke="#B8860B" stroke-width="0.8" fill="none" opacity="0.7"/>
  <path d="M 12 12 Q 14 10 16 12" stroke="#B8860B" stroke-width="0.8" fill="none" opacity="0.7"/>
  <path d="M 16 12 Q 18 10 20 12" stroke="#B8860B" stroke-width="0.8" fill="none" opacity="0.7"/>
  <path d="M 20 12 Q 22 10 24 12" stroke="#B8860B" stroke-width="0.8" fill="none" opacity="0.7"/>
  
  <!-- パンの影（控えめ） -->
  <ellipse cx="15" cy="18" rx="11" ry="3" fill="#B8860B" opacity="0.2"/>
  
  <!-- パンの表面のテクスチャ（控えめな点） -->
  <circle cx="9" cy="10" r="0.3" fill="#B8860B" opacity="0.5"/>
  <circle cx="14" cy="9" r="0.2" fill="#B8860B" opacity="0.5"/>
  <circle cx="18" cy="10" r="0.3" fill="#B8860B" opacity="0.5"/>
  <circle cx="23" cy="11" r="0.2" fill="#B8860B" opacity="0.5"/>
  
  <circle cx="11" cy="13" r="0.2" fill="#B8860B" opacity="0.5"/>
  <circle cx="16" cy="12" r="0.3" fill="#B8860B" opacity="0.5"/>
  <circle cx="21" cy="13" r="0.2" fill="#B8860B" opacity="0.5"/>
  
  <!-- パンの端の立体感（控えめ） -->
  <ellipse cx="6" cy="16" rx="2" ry="4" fill="#B8860B" opacity="0.3"/>
  <ellipse cx="26" cy="16" rx="2" ry="4" fill="#B8860B" opacity="0.3"/>
  
  <!-- 光沢効果（控えめ） -->
  <ellipse cx="12" cy="8" rx="4" ry="1.5" fill="#FFFFFF" opacity="0.3"/>
</svg>
