<svg width="200" height="120" viewBox="0 0 200 120" xmlns="http://www.w3.org/2000/svg">
  <!-- パンの本体（楕円形のローフ） -->
  <ellipse cx="100" cy="60" rx="75" ry="30" fill="#D2691E" stroke="#8B4513" stroke-width="2"/>
  
  <!-- パンの上部（明るい部分） -->
  <ellipse cx="100" cy="55" rx="70" ry="25" fill="#F4A460" stroke="#DEB887" stroke-width="1"/>
  
  <!-- パンのスコア（切り込み）5本 -->
  <path d="M 35 50 Q 45 45 55 50" stroke="#FFF8DC" stroke-width="3" fill="none"/>
  <path d="M 55 50 Q 65 45 75 50" stroke="#FFF8DC" stroke-width="3" fill="none"/>
  <path d="M 75 50 Q 85 45 95 50" stroke="#FFF8DC" stroke-width="3" fill="none"/>
  <path d="M 95 50 Q 105 45 115 50" stroke="#FFF8DC" stroke-width="3" fill="none"/>
  <path d="M 115 50 Q 125 45 135 50" stroke="#FFF8DC" stroke-width="3" fill="none"/>
  <path d="M 135 50 Q 145 45 155 50" stroke="#FFF8DC" stroke-width="3" fill="none"/>
  <path d="M 155 50 Q 165 45 175 50" stroke="#FFF8DC" stroke-width="3" fill="none"/>
  
  <!-- パンの影（立体感） -->
  <ellipse cx="95" cy="68" rx="70" ry="25" fill="#CD853F" opacity="0.4"/>
  
  <!-- パンの表面のテクスチャ（小さな点） -->
  <circle cx="40" cy="45" r="1" fill="#8B4513" opacity="0.7"/>
  <circle cx="70" cy="42" r="0.8" fill="#8B4513" opacity="0.7"/>
  <circle cx="100" cy="44" r="0.9" fill="#8B4513" opacity="0.7"/>
  <circle cx="130" cy="46" r="0.7" fill="#8B4513" opacity="0.7"/>
  <circle cx="160" cy="48" r="0.8" fill="#8B4513" opacity="0.7"/>
  
  <circle cx="55" cy="55" r="0.7" fill="#8B4513" opacity="0.7"/>
  <circle cx="85" cy="52" r="0.9" fill="#8B4513" opacity="0.7"/>
  <circle cx="115" cy="54" r="0.8" fill="#8B4513" opacity="0.7"/>
  <circle cx="145" cy="56" r="0.6" fill="#8B4513" opacity="0.7"/>
  
  <circle cx="70" cy="58" r="0.8" fill="#8B4513" opacity="0.7"/>
  <circle cx="100" cy="60" r="0.7" fill="#8B4513" opacity="0.7"/>
  <circle cx="130" cy="62" r="0.9" fill="#8B4513" opacity="0.7"/>
  
  <!-- パンの端の立体感 -->
  <ellipse cx="30" cy="60" rx="10" ry="20" fill="#CD853F" opacity="0.5"/>
  <ellipse cx="170" cy="60" rx="10" ry="20" fill="#CD853F" opacity="0.5"/>
  
  <!-- 光沢効果 -->
  <ellipse cx="80" cy="40" rx="25" ry="10" fill="#FFD700" opacity="0.3"/>
  
  <!-- パンの底の影 -->
  <ellipse cx="100" cy="85" rx="70" ry="8" fill="#8B4513" opacity="0.2"/>
</svg>
