<svg width="200" height="120" viewBox="0 0 200 120" xmlns="http://www.w3.org/2000/svg">
  <!-- パンの本体（楕円形） -->
  <ellipse cx="100" cy="60" rx="70" ry="25" fill="#D2691E" stroke="#8B4513" stroke-width="1"/>
  
  <!-- パンの上部（明るい部分） -->
  <ellipse cx="100" cy="55" rx="65" ry="20" fill="#F4A460" stroke="#DEB887" stroke-width="0.5"/>
  
  <!-- パンのスコア（切り込み）4本 -->
  <path d="M 40 50 Q 50 45 60 50" stroke="#FFF8DC" stroke-width="2" fill="none"/>
  <path d="M 60 50 Q 70 45 80 50" stroke="#FFF8DC" stroke-width="2" fill="none"/>
  <path d="M 80 50 Q 90 45 100 50" stroke="#FFF8DC" stroke-width="2" fill="none"/>
  <path d="M 100 50 Q 110 45 120 50" stroke="#FFF8DC" stroke-width="2" fill="none"/>
  <path d="M 120 50 Q 130 45 140 50" stroke="#FFF8DC" stroke-width="2" fill="none"/>
  <path d="M 140 50 Q 150 45 160 50" stroke="#FFF8DC" stroke-width="2" fill="none"/>
  
  <!-- パンの影（立体感） -->
  <ellipse cx="95" cy="65" rx="65" ry="20" fill="#CD853F" opacity="0.3"/>
  
  <!-- パンの表面のテクスチャ（小さな点） -->
  <circle cx="45" cy="45" r="0.8" fill="#8B4513" opacity="0.6"/>
  <circle cx="75" cy="42" r="0.6" fill="#8B4513" opacity="0.6"/>
  <circle cx="105" cy="44" r="0.7" fill="#8B4513" opacity="0.6"/>
  <circle cx="135" cy="46" r="0.5" fill="#8B4513" opacity="0.6"/>
  <circle cx="155" cy="48" r="0.6" fill="#8B4513" opacity="0.6"/>
  
  <circle cx="50" cy="55" r="0.5" fill="#8B4513" opacity="0.6"/>
  <circle cx="80" cy="52" r="0.7" fill="#8B4513" opacity="0.6"/>
  <circle cx="110" cy="54" r="0.6" fill="#8B4513" opacity="0.6"/>
  <circle cx="140" cy="56" r="0.5" fill="#8B4513" opacity="0.6"/>
  
  <circle cx="65" cy="58" r="0.6" fill="#8B4513" opacity="0.6"/>
  <circle cx="95" cy="60" r="0.5" fill="#8B4513" opacity="0.6"/>
  <circle cx="125" cy="62" r="0.7" fill="#8B4513" opacity="0.6"/>
  
  <!-- パンの端の立体感 -->
  <ellipse cx="35" cy="60" rx="8" ry="15" fill="#CD853F" opacity="0.4"/>
  <ellipse cx="165" cy="60" rx="8" ry="15" fill="#CD853F" opacity="0.4"/>
  
  <!-- 光沢効果 -->
  <ellipse cx="85" cy="40" rx="20" ry="8" fill="#FFD700" opacity="0.2"/>
</svg>
